<?xml version="1.0" encoding="utf-8"?>
<!-- Generator: Adobe Illustrator 18.1.0, SVG Export Plug-In . SVG Version: 6.00 Build 0)  -->
<svg version="1.1" id="Layer_1" xmlns="http://www.w3.org/2000/svg" xmlns:xlink="http://www.w3.org/1999/xlink" x="0px" y="0px"
	 viewBox="0 0 500 500" enable-background="new 0 0 500 500" xml:space="preserve">
<path fill="#010101" d="M437.6,39.1h-14.8C422.6,17,420.7,0,418.4,0l0,0l0,0H55.3l0,0c-2.4,0-4.4,20.2-4.4,45s2,45,4.4,45l0,0h363.2
	l0,0l0,0c2.2,0,4-17.2,4.4-39.2h14.8v90L231.2,249.1v13.6v50.4h-17.3c-4.3,0-7.6,3.5-7.6,7.6c0,4.3,3.5,7.6,7.6,7.6v166.6
	c0,2.8,10,5.1,22.5,5.1s22.5-2.3,22.5-5.1V328.4h-1.2c4.3,0,7.6-3.5,7.6-7.6c0-4.3-3.5-7.6-7.6-7.6h-15v-56.5l206.1-108.8h0.2V39.1
	H437.6z"/>
</svg>
